# xmcd
#
# Track frame offsets:
# 150
# 14053
# 33005
# 48942
# 66916
# 84185
# 104847
# 116834
# 133309
# 151526
# 168233
# 187461
# 202538
# 221525
# 238410
#
# Disc length: 3388 seconds
#
#
# Revision: 2
# Processed by: cddbd v1.4PL0 Copyright (c) Steve Scherf et al.
# Submitted via: FreeRIP 2.40 
#
DISCID=d20d3a0f
DTITLE=Bruno e Marrone - Sonhos, Planos, Fantasias
DYEAR=1900
DGENRE=
TTITLE0=Credo em Cruz Ave-Maria
TTITLE1=Agora Vai
TTITLE2=Anjo de Amor
TTITLE3=Eu Queria
TTITLE4=Então Pode Ir
TTITLE5=Se Tiver Coragem Joga Fora
TTITLE6=Tá Liberado
TTITLE7=Menina
TTITLE8=Raio de Luar
TTITLE9=Cama Vazia
TTITLE10=Remar Contra a Maré
TTITLE11=Telefone Mudo
TTITLE12=Noite sem Sono
TTITLE13=Metade da Metade
TTITLE14=Ligação Urbana
EXTD=Incluindo o Sucesso Ligação Urbana
EXTT0=
EXTT1=
EXTT2=
EXTT3=
EXTT4=
EXTT5=
EXTT6=
EXTT7=
EXTT8=
EXTT9=
EXTT10=
EXTT11=
EXTT12=
EXTT13=Participação especial de Ana Paula
EXTT14=
PLAYORDER=
